<svg xmlns="http://www.w3.org/2000/svg" id="Layer_1" viewBox="0 0 50.6 100" width="50.6" height="100"><style>.st0{fill:#b4fff4}</style><path d="M46.1 74.1l-7.4-12.2c1.4-4.7 2.4-10 2.4-15.1 0-.7 0-1.4-.1-2-.8-13.6-6-18.5-9.9-22.4-1.8-1.9-3.3-3.5-4.3-5.7 0 0 0-.1-.1-.1.6-.1 1.2-.3 1.7-.6.7-.4 1.1-1.2 1.1-2.1l-.2-.5c-.3-.3-1.3-.5-2.8-.6-.1-.9-.1-1.8 0-2.6.1-.5.1-.5.7-.5h.1c.3 0 .6-.2.8-.5.3-.5-.1-1.1-.3-1.5l-.1-.1-.1-.2C26.5 4.8 26 3 26 2c0-1.3-.3-1.6-.6-1.8-.2-.1-.5-.1-.7 0-.1.1-.6.3-.6 1.8 0 .7-.3 2.2-1.6 5.5l-.1.2-.1.1c-.2.3-.4.7-.4 1.1 0 .1 0 .3.1.4.2.3.5.5.8.5h.1c.7.1.7.1.7.5.1.5.1 1.1.1 1.6 0 .3 0 .7-.1 1-1.5.1-2.5.3-2.8.6l-.2.5c0 .8.4 1.6 1.1 2.1.5.3 1.1.5 1.7.6l-.1.1c-1 2.3-2.6 3.9-4.5 5.8-3.9 3.9-9.2 8.8-9.9 22.3 0 .7-.1 1.4-.1 2 0 5.2 1.1 10.4 2.4 15.1L4.5 74.1 0 100h5l4.7-16.5 7.9-6.6.4.1.9.3c.1.8.3 1.7.4 2.2.1.4.3 1.4 4 1.7V100h4.2V81.2c3.9-.2 4.1-1.3 4.2-1.7.1-.5.3-1.4.4-2.2l.9-.3.2-.1 7.9 6.6 4.7 16.5h5l-4.7-25.9z" class="st0"/></svg>