<svg xmlns="http://www.w3.org/2000/svg" id="Layer_1" viewBox="0 0 125.39 247.77" width="125.39" height="247.77"><defs><style>.cls-1{fill:#b4fff4}</style></defs><path d="M180.61 187.66l-18.28-30.16c3.39-11.64 6-24.72 6-37.48 0-1.68 0-3.36-.14-5-1.88-33.68-14.89-45.75-24.61-55.45C139 54.93 135.5 51 133 45.36c0-.09-.08-.19-.13-.28a10.62 10.62 0 0 0 4.13-1.37 5.79 5.79 0 0 0 2.72-5.12l-.52-1.21c-.8-.8-3.13-1.27-6.88-1.44a21.47 21.47 0 0 1 .06-6.49c.15-1.16.15-1.16 1.8-1.35h.33a2.36 2.36 0 0 0 2-1.27c.65-1.3-.2-2.81-.72-3.71 0 0-.17-.3-.16-.27l-.23-.58c-2.62-6.45-3.95-11-3.95-13.49 0-3.24-.78-4.07-1.37-4.4a1.61 1.61 0 0 0-1.64 0c-.34.2-1.39.8-1.39 4.4 0 1.66-.7 5.38-4 13.62l-.17.42-.17.3a5.79 5.79 0 0 0-1 2.68 2.35 2.35 0 0 0 .24 1 2.4 2.4 0 0 0 2 1.27h.32c1.66.19 1.66.19 1.8 1.35a31.74 31.74 0 0 1 .31 4 14.09 14.09 0 0 1-.22 2.53c-3.76.16-6.1.64-6.9 1.44l-.52 1.21a5.8 5.8 0 0 0 2.71 5.12 10.69 10.69 0 0 0 4.1 1.37l-.13.3c-2.42 5.66-6.42 9.68-11.1 14.33-9.7 9.69-22.69 21.75-24.56 55.27-.09 1.67-.14 3.35-.14 5 0 12.76 2.66 25.84 6 37.48l-18.24 30.19-11.08 64.23h12.51l11.69-40.8 19.62-16.44.71.29a21.09 21.09 0 0 0 2.16.7c.34 2 .71 4.17 1 5.49.18 1 .66 3.5 9.86 4.13v46.61h10.3v-46.55c9.66-.58 10.13-3.12 10.31-4.13.27-1.33.64-3.49 1-5.53a20.88 20.88 0 0 0 2.15-.7l.43-.19 19.47 16.32 11.69 40.8h12.5z" class="cls-1" transform="translate(-66.3 -4.11)"/></svg>